<?xml version="1.0" standalone="no"?>
<!DOCTYPE svg PUBLIC "-//W3C//DTD SVG 20010904//EN"
 "http://www.w3.org/TR/2001/REC-SVG-20010904/DTD/svg10.dtd">
<svg version="1.0" xmlns="http://www.w3.org/2000/svg"
 width="407.000000pt" height="387.000000pt" viewBox="0 0 407.000000 387.000000"
 preserveAspectRatio="xMidYMid meet">

<g transform="translate(0.000000,387.000000) scale(0.100000,-0.100000)"
fill="#000000" stroke="none">
<path d="M2493 3095 c-56 -24 -198 -170 -262 -269 -33 -51 -66 -105 -73 -121
l-12 -27 -94 4 c-84 5 -101 9 -175 46 -57 28 -93 54 -115 81 -39 48 -68 53
-83 14 -16 -41 -5 -146 19 -188 l21 -35 -38 0 c-21 0 -59 -6 -84 -14 l-46 -14
-88 55 c-48 31 -101 60 -118 66 -16 5 -34 13 -40 18 -21 16 -136 49 -170 49
-106 0 -141 -61 -138 -240 2 -163 51 -384 118 -535 21 -50 22 -55 9 -106 -8
-30 -17 -85 -21 -122 -6 -67 -6 -68 -32 -63 -53 11 -242 27 -251 21 -6 -3 -10
-12 -10 -19 0 -8 48 -20 147 -37 l147 -24 12 -75 c7 -41 15 -82 19 -91 5 -13
-1 -18 -27 -23 -70 -14 -213 -71 -213 -86 0 -20 21 -18 137 14 125 34 131 34
151 -10 41 -85 172 -205 262 -240 25 -9 45 -20 45 -23 0 -4 -29 -19 -65 -35
l-65 -28 -47 39 c-102 83 -259 183 -289 183 -7 0 -32 -18 -55 -39 -29 -29 -50
-41 -76 -43 -65 -5 -62 -31 16 -181 216 -416 296 -564 314 -585 32 -34 242
-138 364 -178 302 -102 661 -101 969 1 204 68 491 238 612 363 25 26 25 31
-13 226 -35 176 -106 316 -238 468 l-50 58 37 44 c52 63 103 158 122 224 9 32
20 61 25 67 5 5 80 16 167 25 137 13 157 18 160 34 4 17 -5 18 -156 15 l-159
-4 -6 110 c-3 61 -8 117 -12 126 -4 11 0 18 12 22 128 40 279 100 281 112 2
10 -4 15 -20 15 -34 0 -177 -36 -236 -59 -62 -25 -62 -25 -62 -8 0 16 -64 151
-89 186 -14 20 -18 45 -18 102 -1 165 -65 421 -140 559 -50 92 -100 158 -134
175 -35 19 -104 19 -146 0z m112 -239 c55 -93 115 -307 115 -407 l0 -29 -52
37 c-73 51 -187 102 -266 119 -37 7 -70 14 -75 14 -10 0 47 113 86 170 17 25
51 66 75 93 58 61 82 62 117 3z m-845 -106 c83 -76 203 -119 337 -120 35 0 40
-3 36 -18 -2 -10 4 -29 15 -42 26 -32 123 -41 152 -15 19 18 23 17 102 -4 87
-23 191 -69 271 -120 35 -23 49 -39 54 -62 9 -47 101 -129 145 -129 11 0 30
-27 57 -82 57 -119 58 -123 19 -139 -53 -21 -198 -109 -198 -119 0 -18 24 -10
130 39 58 28 109 46 114 41 4 -4 11 -58 14 -118 6 -128 10 -122 -103 -142 -77
-14 -105 -25 -105 -42 0 -11 88 -6 162 9 30 6 31 5 25 -25 -11 -52 -74 -174
-122 -235 -39 -49 -133 -128 -225 -188 -13 -9 -19 -18 -13 -22 13 -8 120 43
161 78 32 27 33 27 54 9 34 -31 110 -134 160 -218 119 -197 131 -396 33 -528
-82 -112 -264 -156 -416 -103 -38 14 -47 14 -81 0 -119 -47 -257 12 -288 123
-15 55 -12 82 14 138 35 75 80 106 166 112 63 4 73 2 124 -27 62 -34 72 -36
146 -20 55 12 68 36 23 41 -27 3 -28 6 -35 70 -3 37 -9 72 -13 78 -15 24 -25
-6 -25 -75 0 -41 -4 -76 -9 -80 -5 -3 -36 8 -68 25 -32 16 -70 32 -85 35 -16
3 -28 10 -28 15 0 5 -21 62 -46 127 -25 65 -55 142 -66 171 -16 43 -25 54 -47
58 -23 5 -31 15 -45 60 -12 38 -22 54 -34 54 -41 0 -525 -170 -612 -215 -37
-19 -68 -12 -172 42 -127 66 -225 195 -262 344 -22 91 -21 256 3 345 28 105
77 219 123 287 53 79 166 197 182 191 7 -3 37 11 66 31 35 24 59 33 72 29 17
-5 18 -8 6 -22 -36 -44 -48 -106 -22 -116 65 -25 234 34 234 82 0 7 -3 12 -7
10 -94 -48 -203 -75 -203 -51 0 15 59 93 75 100 34 12 14 31 -38 35 -67 5
-136 44 -115 64 25 25 138 47 205 40 35 -4 63 -4 63 0 0 3 -15 20 -34 38 -18
17 -41 45 -49 62 -15 30 -35 134 -25 134 3 0 24 -18 48 -40z m-511 -221 c59
-34 116 -75 177 -129 l38 -33 -30 -21 c-53 -38 -139 -124 -164 -165 -14 -22
-28 -41 -31 -41 -18 -1 -69 188 -83 311 -7 58 5 109 25 109 7 0 37 -14 68 -31z
m970 -1250 c15 -43 14 -59 -4 -59 -9 0 -57 -15 -108 -34 -368 -136 -454 -169
-547 -206 -58 -23 -120 -50 -138 -61 -20 -11 -52 -19 -80 -19 -43 0 -57 7
-155 79 -60 44 -140 99 -179 122 -61 37 -69 45 -53 54 10 5 30 20 45 32 l27
22 94 -55 c124 -73 198 -130 210 -161 5 -13 12 -23 17 -21 4 2 48 24 97 50 79
40 282 123 465 190 113 42 275 97 287 97 6 1 16 -13 22 -30z m902 -692 c-8 -8
-11 -7 -11 4 0 20 13 34 18 19 3 -7 -1 -17 -7 -23z m-331 -202 c0 -2 -23 -16
-50 -30 -43 -22 -51 -23 -55 -10 -3 8 -7 22 -10 30 -3 12 7 15 55 15 33 0 60
-2 60 -5z"/>
<path d="M2126 1870 c-16 -5 -46 -26 -67 -46 -37 -36 -77 -109 -66 -120 3 -4
28 16 54 43 28 28 66 56 87 63 52 17 132 9 189 -20 53 -26 67 -22 44 14 -38
57 -159 90 -241 66z"/>
<path d="M1405 1713 c-52 -13 -105 -75 -105 -123 0 -28 12 -25 35 10 44 66
138 77 215 26 49 -32 64 -16 24 26 -49 52 -113 75 -169 61z"/>
<path d="M1982 1430 c-26 -25 -41 -30 -81 -30 -26 0 -62 5 -80 11 -28 10 -34
8 -68 -21 -33 -30 -41 -32 -91 -28 -48 4 -53 3 -37 -8 24 -18 78 -28 108 -20
12 3 32 14 44 26 18 16 27 18 48 10 34 -13 60 -13 109 1 39 11 96 57 96 78 0
18 -13 12 -48 -19z"/>
</g>
</svg>
